<?xml version="1.0" standalone="no"?>
<!DOCTYPE svg PUBLIC "-//W3C//DTD SVG 20010904//EN"
 "http://www.w3.org/TR/2001/REC-SVG-20010904/DTD/svg10.dtd">
<svg version="1.0" xmlns="http://www.w3.org/2000/svg"
 width="900.000000pt" height="900.000000pt" viewBox="0 0 900.000000 900.000000"
 preserveAspectRatio="xMidYMid meet">
<metadata>
Created by potrace 1.14, written by Peter Selinger 2001-2017
</metadata>
<g transform="translate(0.000000,900.000000) scale(0.100000,-0.100000)"
fill="#000000" stroke="none">
<path d="M2627 6583 c-27 -4 -27 -6 -21 -51 3 -26 13 -76 21 -112 8 -36 17
-76 19 -90 3 -14 7 -32 9 -40 3 -8 7 -33 10 -55 8 -51 13 -83 20 -115 3 -14 7
-47 10 -75 2 -27 7 -60 9 -73 3 -12 8 -61 12 -110 3 -48 8 -107 10 -132 5 -60
10 -1043 6 -1149 -2 -47 -7 -80 -12 -75 -10 10 -561 1112 -613 1224 -19 41
-43 95 -55 120 -70 150 -204 541 -192 562 1 2 -4 17 -10 33 -6 17 -14 46 -16
65 -2 19 -9 39 -15 45 -10 10 -239 16 -296 8 -30 -5 -32 -8 -28 -38 2 -18 281
-583 621 -1255 l616 -1222 1 -222 c2 -271 -8 -495 -28 -641 -3 -22 -7 -56 -10
-75 -4 -33 -8 -63 -19 -140 -3 -19 -8 -48 -12 -63 -3 -16 -7 -38 -9 -50 -9
-57 -17 -97 -31 -152 -8 -33 -16 -71 -19 -85 -2 -14 -10 -46 -16 -72 l-11 -48
-71 -1 c-40 -1 -124 -3 -187 -4 -63 -2 -134 -4 -158 -4 l-43 -1 5 -76 c3 -42
6 -78 9 -80 5 -5 1460 -17 1587 -13 58 1 445 3 860 3 603 1 761 -2 787 -13 23
-9 36 -10 52 -2 18 10 316 17 868 20 150 1 152 2 134 83 -6 24 -12 81 -15 128
-4 68 -9 87 -24 99 -17 14 -39 80 -48 146 -2 11 -5 30 -8 41 -2 12 -7 37 -10
55 -3 19 -8 45 -11 59 -11 55 -14 77 -20 115 -2 22 -8 57 -11 78 -21 135 -29
287 -28 553 l1 251 190 374 c202 396 577 1140 899 1782 107 214 197 401 200
415 9 51 -4 57 -141 58 -171 2 -187 -2 -192 -46 -14 -131 -136 -487 -258 -755
-55 -122 -688 -1385 -692 -1382 -2 3 -17 891 -16 1012 0 131 17 438 29 530 3
22 7 63 9 90 3 28 7 59 9 70 2 11 7 40 11 65 11 70 14 93 20 120 3 14 7 36 10
50 7 38 12 57 35 154 15 64 18 92 10 100 -11 11 -235 18 -282 9 l-23 -4 0
-964 c0 -630 -3 -967 -10 -974 -10 -9 -210 -54 -290 -65 -177 -24 -181 -24
-305 -32 -124 -7 -208 -11 -281 -13 -31 -1 -47 -5 -46 -13 1 -40 -3 -49 -20
-39 -10 5 -52 12 -93 15 -163 14 -283 70 -346 161 -29 41 -38 73 -48 175 -14
130 -22 217 -30 335 -4 50 -9 101 -11 115 -4 29 -17 158 -20 210 -2 19 -6 69
-9 110 -4 41 -9 100 -11 130 -22 279 -23 286 -24 334 -2 69 -10 33 -16 -69 -3
-55 -8 -125 -10 -155 -8 -104 -16 -205 -20 -260 -7 -87 -14 -170 -20 -235 -4
-33 -8 -87 -10 -120 -1 -33 -4 -60 -5 -60 -1 0 -4 -20 -5 -45 -5 -70 -18 -221
-28 -325 -7 -65 -19 -98 -51 -138 -54 -68 -170 -131 -265 -143 -19 -2 -46 -6
-60 -9 -14 -2 -59 -7 -100 -10 -62 -4 -72 -3 -68 10 9 23 -6 26 -121 30 -168
5 -375 20 -412 30 -8 2 -42 7 -75 10 -32 4 -62 8 -65 10 -3 2 -21 6 -40 9 -81
13 -214 47 -224 57 -3 3 -8 437 -11 964 -3 527 -8 961 -10 964 -6 6 -239 9
-278 4z m1418 -2138 c149 -13 279 -91 324 -194 22 -53 30 -101 46 -286 2 -33
7 -80 9 -105 13 -126 19 -188 21 -215 6 -66 16 -171 20 -195 2 -14 6 -65 10
-115 3 -49 8 -108 10 -130 2 -22 7 -80 10 -130 3 -49 8 -99 10 -110 2 -11 4
-40 4 -64 1 -72 9 -43 16 59 11 173 14 211 19 258 5 42 10 105 21 257 2 28 6
77 9 110 3 33 8 92 11 130 3 39 8 93 10 120 3 28 8 84 10 125 5 77 12 146 21
215 5 38 39 101 74 135 64 65 181 114 295 125 39 3 85 8 103 11 30 5 37 -1 33
-28 0 -5 18 -8 42 -9 106 -3 395 -18 447 -24 19 -2 67 -7 105 -11 39 -3 74 -8
78 -11 4 -2 29 -6 55 -9 26 -2 58 -6 72 -9 14 -3 36 -7 50 -10 77 -14 78 -15
83 -53 2 -20 3 -96 2 -168 l-2 -130 -328 -657 c-180 -361 -331 -657 -335 -657
-13 0 -26 21 -90 145 -35 66 -74 140 -88 165 -35 64 -200 381 -364 702 -27 54
-53 100 -58 103 -4 2 -35 -23 -69 -57 l-62 -61 44 -86 c428 -828 550 -1071
542 -1079 -10 -10 -672 -8 -805 2 -134 10 -235 21 -280 31 -3 1 -25 5 -50 9
-65 12 -67 12 -165 41 -139 41 -134 24 -51 182 80 152 330 641 408 797 l49 98
-60 63 -61 63 -18 -32 c-10 -17 -38 -69 -62 -116 -42 -80 -135 -262 -233 -450
-24 -47 -60 -114 -79 -150 -19 -36 -59 -110 -88 -164 -46 -88 -83 -156 -96
-178 -3 -4 -15 -2 -28 3 -18 8 -85 134 -271 507 l-248 496 53 103 c29 57 57
103 61 103 5 0 9 5 9 10 0 12 70 114 82 118 4 2 8 9 8 17 0 27 274 303 335
338 12 6 74 12 173 16 12 1 26 9 29 19 10 26 24 32 73 27 25 -3 72 -7 105 -10z
m-608 -69 c4 -3 -38 -51 -93 -106 -116 -116 -181 -194 -255 -307 -29 -45 -57
-79 -60 -75 -4 4 -31 54 -59 110 -49 97 -53 109 -55 185 -4 122 0 129 71 144
32 6 75 14 94 17 19 2 64 9 100 15 36 5 87 12 114 15 27 4 51 8 54 10 6 6 82
0 89 -8z m2628 -1373 c-1 -238 -4 -435 -7 -438 -6 -7 -16 -9 -148 -29 -178
-28 -351 -39 -367 -22 -7 6 269 565 439 891 l73 140 5 -55 c3 -30 5 -249 5
-487z m-2895 177 c77 -153 136 -281 132 -284 -32 -20 -306 214 -337 289 -13
29 -13 39 0 74 8 23 15 45 15 49 3 28 40 152 46 152 2 0 67 -126 144 -280z
m-111 -212 c92 -74 167 -123 252 -168 l66 -34 66 -132 66 -132 -67 -4 c-109
-7 -511 -2 -519 6 -9 9 -10 345 -1 446 4 41 7 83 7 94 1 18 2 18 29 0 15 -10
60 -44 101 -76z m836 -407 c15 0 123 -37 138 -47 16 -10 13 -12 -25 -16 -56
-6 -227 -3 -234 5 -3 3 6 24 20 46 l26 41 35 -15 c20 -8 38 -14 40 -14z"/>
<path d="M3267 6563 c-35 -4 -37 -6 -32 -33 6 -34 901 -1798 926 -1824 17 -18
19 -18 76 14 103 58 104 34 -11 263 -320 632 -423 838 -439 878 -10 24 -24 58
-32 74 -39 83 -129 371 -140 447 -2 15 -6 35 -9 45 -8 28 -19 86 -19 111 -1
12 -3 22 -6 23 -23 3 -284 5 -314 2z"/>
<path d="M5475 6561 c-16 -4 -29 -10 -27 -14 1 -4 2 -8 1 -9 -2 -6 -7 -46 -13
-91 -3 -26 -8 -53 -12 -58 -3 -6 -8 -25 -11 -42 -6 -48 -70 -247 -118 -372
-68 -175 -76 -191 -346 -720 -60 -115 -137 -268 -173 -340 l-66 -130 27 -22
c15 -12 43 -30 63 -40 19 -10 42 -24 51 -31 21 -16 26 -10 78 98 23 47 46 92
51 100 5 8 131 258 281 555 149 297 275 545 279 550 21 27 251 498 256 523 4
19 1 33 -7 38 -16 10 -269 13 -314 5z"/>
</g>
</svg>
